<svg xmlns="http://www.w3.org/2000/svg" viewBox="0 0 228.25 73.59"><defs><style>.cls-1{fill:#555;}</style></defs><title>Asset 1</title><g id="Layer_2" data-name="Layer 2"><g id="Layer_1-2" data-name="Layer 1"><path class="cls-1" d="M0,73.59H70V0H0ZM17.35,26.5h-2l1.8-16.41a8.66,8.66,0,0,0,5.11,1.72H52.93L33,57.11h3.6c5.26,0,13.82-7.13,16.42-17h1.94L53.5,59.91H15.05L34.78,14.48C26.36,14.48,19.37,18.22,17.35,26.5Z"/><path class="cls-1" d="M91.81,53.43V24.56a79.33,79.33,0,0,1-18.08,7.49s5,3.45,5.12,5.11V53.43c0,2.88-1.59,4.47-4.11,4.47v2H95.91v-2C93.39,57.9,91.81,56.31,91.81,53.43Z"/><path class="cls-1" d="M84.75,26.43c2.74-4.1,5.69-6.84,8.57-8.35a24.57,24.57,0,0,1-8.57-8.36,24.57,24.57,0,0,1-8.57,8.36C79.06,19.59,82,22.33,84.75,26.43Z"/><path class="cls-1" d="M127.52,25.42c-4,0-7.63,2.52-9.29,4.25v-5a138.82,138.82,0,0,1-18.86,7.92c1,.58,6.12,3,6.12,6.63V67.69c0,3.17-1.8,4-5.12,4v1.87h23.41V71.72c-3.39,0-5.26-1.15-5.26-4V60.2a20.19,20.19,0,0,0,6.12,1.08c11.74,0,17.5-8.28,17.5-18.14C142.14,34.21,136.45,25.42,127.52,25.42Zm.14,25.35c0,5.25-1.08,7.41-4.46,7.41s-4.46-2.37-4.46-5.54V37.81c0-4,1.22-8.07,4.89-8.07,3.17,0,4,2.81,4,7.13Z"/><path class="cls-1" d="M171.08,61.28c11.74,0,17.5-8.28,17.5-18.14,0-8.93-5.69-17.72-14.62-17.72-4,0-7.63,2.52-9.29,4.25v-5a138.82,138.82,0,0,1-18.86,7.92c1,.58,6.12,3,6.12,6.63V67.69c0,3.17-1.8,4-5.12,4v1.87h23.41V71.72c-3.39,0-5.26-1.15-5.26-4V60.2A20.19,20.19,0,0,0,171.08,61.28Zm-5.91-23.47c0-4,1.23-8.07,4.9-8.07,3.17,0,4,2.81,4,7.13v13.9c0,5.25-1.08,7.41-4.46,7.41s-4.47-2.37-4.47-5.54Z"/><path class="cls-1" d="M215.94,26.07v2c2,0,4.1,1,4.1,2.59a3.62,3.62,0,0,1-.36,1.87l-5.54,11.3-5.69-12.09A4.33,4.33,0,0,1,208,30c0-1.22,1.29-1.94,3.24-1.94v-2H187.57v2c2.73,0,4.17,1.94,5.54,4.46l11.23,21.17a12.27,12.27,0,0,1,.94,4.18c0,4.39-3.6,9.72-8.71,9.72-3.32,0-5.19-2.16-7-5a22.34,22.34,0,0,1-8.06,6.26s5.47,3.17,10,3.17a18.54,18.54,0,0,0,16.92-10.73l14.11-28.8c1.3-2.59,2.95-4.46,5.69-4.46v-2Z"/></g></g></svg>