<?xml version="1.0" standalone="no"?>
<!DOCTYPE svg PUBLIC "-//W3C//DTD SVG 20010904//EN"
 "http://www.w3.org/TR/2001/REC-SVG-20010904/DTD/svg10.dtd">
<svg version="1.0" xmlns="http://www.w3.org/2000/svg"
 width="228.000000pt" height="72.000000pt" viewBox="0 0 228.000000 72.000000"
 preserveAspectRatio="xMidYMid meet">
<metadata>
Created by potrace 1.15, written by Peter Selinger 2001-2017
</metadata>
<g transform="translate(0.000000,72.000000) scale(0.100000,-0.100000)"
fill="#000000" stroke="none">
<path d="M0 360 l0 -360 350 0 350 0 0 360 0 360 -350 0 -350 0 0 -360z m362
250 l167 -5 -96 -218 c-53 -119 -93 -220 -90 -223 3 -4 21 -4 40 0 43 8 104
66 129 123 31 70 40 54 32 -54 -4 -54 -8 -99 -9 -101 -1 -1 -88 -1 -193 0
l-191 3 95 218 c53 120 93 221 90 224 -3 3 -26 0 -51 -7 -46 -13 -105 -66
-105 -95 0 -8 -7 -15 -16 -15 -12 0 -14 7 -10 28 2 15 8 53 11 85 5 40 10 55
18 50 7 -5 87 -10 179 -13z"/>
<path d="M880 479 c-19 -10 -57 -26 -85 -35 -66 -22 -71 -28 -41 -48 25 -16
26 -20 26 -116 0 -89 -2 -100 -20 -110 -42 -22 -18 -30 90 -30 108 0 132 8 90
30 -18 10 -20 23 -22 169 l-3 159 -35 -19z"/>
<path d="M1080 452 c-47 -20 -87 -37 -89 -38 -2 -2 11 -15 28 -29 l31 -27 0
-159 0 -159 -25 -10 c-54 -21 -24 -30 95 -30 120 0 142 7 95 28 -21 10 -25 18
-25 54 l0 43 59 1 c75 1 122 29 150 88 70 144 -49 323 -175 262 -42 -20 -44
-20 -44 -1 0 19 0 19 -100 -23z m174 -28 c23 -23 23 -225 0 -248 -19 -19 -36
-20 -52 -4 -19 19 -16 218 4 246 18 26 27 27 48 6z"/>
<path d="M1550 452 c-47 -20 -87 -37 -89 -38 -2 -2 11 -15 28 -29 l31 -27 0
-159 0 -159 -25 -10 c-54 -21 -24 -30 95 -30 120 0 142 7 95 28 -21 10 -25 18
-25 54 l0 43 59 1 c75 1 122 29 150 88 70 144 -49 323 -175 262 -42 -20 -44
-20 -44 -1 0 19 0 19 -100 -23z m174 -28 c23 -23 23 -225 0 -248 -19 -19 -36
-20 -52 -4 -19 19 -16 218 4 246 18 26 27 27 48 6z"/>
<path d="M1870 466 c0 -7 8 -16 18 -18 25 -7 152 -252 152 -293 0 -71 -88
-113 -127 -62 l-17 24 -42 -31 c-24 -17 -43 -34 -43 -37 -2 -14 67 -34 110
-33 51 2 93 20 126 56 12 12 60 101 108 197 59 120 92 175 105 178 11 3 20 12
20 19 0 11 -16 14 -65 14 -51 0 -65 -3 -65 -15 0 -8 7 -15 15 -15 27 0 27 -27
-1 -81 l-26 -53 -29 54 c-32 63 -35 80 -14 80 8 0 15 7 15 15 0 13 -20 15
-120 15 -96 0 -120 -3 -120 -14z"/>
</g>
</svg>
